<svg width="164" height="164" viewBox="0 0 164 164" fill="none" xmlns="http://www.w3.org/2000/svg">
<path d="M82.0001 139.4C113.701 139.4 139.4 113.701 139.4 82C139.4 50.2988 113.701 24.6 82.0001 24.6C50.299 24.6 24.6001 50.2988 24.6001 82C24.6001 113.701 50.299 139.4 82.0001 139.4Z" fill="#39C2D8"/>
<path fill-rule="evenodd" clip-rule="evenodd" d="M82 141.04C49.4443 141.04 22.96 114.556 22.96 82C22.96 49.4443 49.4443 22.96 82 22.96C114.556 22.96 141.04 49.4443 141.04 82C141.04 114.556 114.556 141.04 82 141.04ZM82 26.24C51.2532 26.24 26.24 51.2532 26.24 82C26.24 112.747 51.2532 137.76 82 137.76C112.747 137.76 137.76 112.747 137.76 82C137.76 51.2532 112.747 26.24 82 26.24Z" fill="#1F212B"/>
<path fill-rule="evenodd" clip-rule="evenodd" d="M107.42 39.7323C107.279 39.7323 107.135 39.6962 107.003 39.6191C105.95 38.9976 104.866 38.4088 103.777 37.8709C103.371 37.6692 103.205 37.1788 103.405 36.7721C103.605 36.3654 104.096 36.2014 104.504 36.3998C105.629 36.9558 106.751 37.5642 107.838 38.2071C108.228 38.4383 108.356 38.9402 108.127 39.3305C107.973 39.588 107.699 39.7323 107.42 39.7323Z" fill="black"/>
<path fill-rule="evenodd" clip-rule="evenodd" d="M112.34 43.0484C112.166 43.0484 111.992 42.9926 111.843 42.8795C111.313 42.4744 110.775 42.0808 110.231 41.7003C109.86 41.4396 109.77 40.9279 110.029 40.5572C110.29 40.1866 110.802 40.0964 111.172 40.3555C111.735 40.7508 112.292 41.1575 112.84 41.5773C113.199 41.8512 113.268 42.3662 112.993 42.727C112.83 42.9385 112.586 43.0484 112.34 43.0484Z" fill="black"/>
<path fill-rule="evenodd" clip-rule="evenodd" d="M81.9999 132.84C53.9674 132.84 31.1599 110.033 31.1599 82C31.1599 53.9675 53.9674 31.16 81.9999 31.16C88.0138 31.16 93.9014 32.2014 99.502 34.2547C99.9267 34.4105 100.146 34.8812 99.9891 35.306C99.8333 35.7324 99.3626 35.9554 98.9378 35.793C93.5193 33.807 87.8203 32.8 81.9999 32.8C54.871 32.8 32.7999 54.8711 32.7999 82C32.7999 109.129 54.871 131.2 81.9999 131.2C109.129 131.2 131.2 109.129 131.2 82C131.2 68.1601 125.32 54.881 115.069 45.5707C114.733 45.2657 114.708 44.7474 115.013 44.4129C115.318 44.0767 115.838 44.0537 116.171 44.3571C126.764 53.9774 132.84 67.6976 132.84 82C132.84 110.033 110.032 132.84 81.9999 132.84Z" fill="#1F212B"/>
<path fill-rule="evenodd" clip-rule="evenodd" d="M95.6333 88.3599C93.4931 90.7051 90.4903 91.8924 89.0832 91.8924C87.4563 91.8924 86.5674 90.8953 86.3854 89.398C86.3247 88.824 86.3444 88.2434 86.4461 87.6743C86.984 84.3173 88.2189 82.2312 88.1418 81.5965C88.1189 81.4145 88.0172 81.3243 87.8827 81.3243C86.8429 81.3243 83.1923 85.0897 82.638 87.5858L82.2067 89.5817C81.9246 90.9888 80.5453 91.8941 79.5974 91.8941C79.1448 91.8941 78.8004 91.6677 78.7397 91.1692C78.7217 90.9412 78.7397 90.7116 78.7938 90.4886L78.9972 89.4373C77.0292 90.9084 74.907 91.9023 73.9132 91.9023C72.5569 91.9023 71.7927 91.1774 71.5237 90.0868C70.6283 91.2676 69.4409 91.9023 68.1765 91.9023C66.5627 91.9023 65.008 90.8346 64.2601 89.2537C63.1958 90.4492 61.9346 91.6169 60.4275 92.5829C58.2036 93.9867 55.7239 95.1199 52.7883 95.1199C50.0774 95.1199 47.7765 93.6685 46.5039 92.4894C44.6162 90.7198 43.6175 88.0876 43.3239 85.6834C42.3973 78.1066 47.009 68.1715 54.1561 63.8173C55.7961 62.8185 57.6329 62.3199 59.3024 62.3199C62.7366 62.3199 65.2983 64.7767 65.6574 67.7123C65.9805 70.3576 64.9227 72.6421 61.9904 74.1214C60.4931 74.8791 59.7518 74.843 59.5173 74.4822C59.3615 74.2411 59.45 73.8327 59.7518 73.5818C62.5086 71.2776 62.5611 69.3883 62.2364 66.7217C62.0265 65.0079 60.8981 63.9091 59.6337 63.9091C54.2135 63.9091 46.4399 76.0681 47.5207 84.9142C47.9421 88.3631 50.0561 92.3549 54.3923 92.3549C55.8371 92.3549 57.3689 91.9465 58.7317 91.2659C61.1097 90.0507 62.4545 89.0897 63.8059 87.5153C63.4746 83.4251 66.9842 78.2903 72.2059 78.2903C74.4642 78.2903 76.3371 79.1972 76.5585 81.0127C76.8357 83.2808 74.9037 83.7351 74.1805 83.7351C73.5475 83.7351 72.5323 83.553 72.4601 82.9643C72.3831 82.3279 73.8279 82.692 73.6491 81.2406C73.5376 80.3337 72.5963 80.0172 71.6926 80.0172C68.4405 80.0172 66.6463 84.5534 66.9891 87.3677C67.1449 88.6387 67.7976 89.908 68.9719 89.908C69.9198 89.908 71.2892 88.5468 71.8123 86.5509C72.1436 85.1897 73.4327 84.2828 74.3822 84.2828C74.8791 84.2828 75.2235 84.5091 75.2842 85.0077C75.3055 85.1897 75.2891 85.4177 75.2317 85.6883C75.1235 86.2771 74.6709 88.2401 74.6922 88.6469C74.7086 89.0011 74.9119 89.4882 75.5269 89.4882C76.0157 89.4882 77.8065 88.5206 79.4662 87.0315C79.9877 84.3369 80.6306 81.0061 80.6815 80.7437C80.8848 79.6515 81.2751 78.5281 83.4891 78.5281C83.9418 78.5281 84.2862 78.7544 84.3518 79.2989C84.3731 79.4793 84.3567 79.7089 84.2993 79.9795L83.681 82.7806C85.6228 80.1943 88.642 78.2903 90.4493 78.2903C91.2185 78.2903 91.8105 78.697 91.9105 79.5137C91.9663 79.968 91.8335 80.7388 91.5333 81.6014C90.8905 83.3693 90.1672 86.0278 89.6883 88.3156C89.5867 88.801 89.7556 89.5357 90.6445 89.5357C91.3529 89.5357 93.6342 88.6665 95.4743 86.2361C95.4628 85.8917 95.4562 85.5423 95.4562 85.1914C95.4562 83.2857 95.5907 81.7441 95.9515 80.6109C96.3123 79.4301 97.8047 78.2985 98.7969 78.2985C99.2955 78.2985 99.6563 78.5707 99.6563 79.1135C99.6563 79.2956 99.6103 79.5235 99.5201 79.7482C98.8428 81.7441 98.482 83.6055 98.482 85.4653C98.482 86.5083 98.7083 88.1877 98.9347 89.0487C98.9789 89.2307 99.0232 89.4111 99.2036 89.4111C99.5201 89.4111 101.644 87.325 103.179 84.783C101.823 83.9204 101.055 82.3329 101.055 80.3813C101.055 77.116 102.999 75.4367 104.894 75.4367C106.385 75.4367 107.74 76.5256 107.74 78.7019C107.74 80.0647 107.197 81.6063 106.431 83.1037C106.431 83.1037 106.748 83.1496 106.882 83.1496C108.056 83.1496 108.96 82.6035 109.459 82.0147C109.685 81.7589 109.893 81.5571 110.095 81.4407C111.609 79.6137 113.824 78.2935 116.425 78.2935C118.639 78.2935 120.55 79.1562 120.771 80.97C121.055 83.2824 119.079 83.7367 118.4 83.7367C117.723 83.7367 116.706 83.5547 116.635 82.9659C116.563 82.3771 118.047 82.6937 117.875 81.2882C117.765 80.3796 116.817 80.0172 115.914 80.0172C112.886 80.0172 110.805 84.0549 111.205 87.3217C111.366 88.637 111.973 89.908 113.147 89.908C114.095 89.908 115.512 88.5452 116.035 86.5493C116.371 85.234 117.654 84.2812 118.603 84.2812C119.054 84.2812 119.445 84.5075 119.51 85.052C119.543 85.3242 119.435 85.9146 118.928 88.045C118.721 88.9519 118.68 89.7243 118.757 90.359C118.92 91.6743 119.522 92.5353 120.079 93.0355C120.283 93.2159 120.401 93.4422 120.417 93.58C120.46 93.9424 120.184 94.2606 119.732 94.2606C119.595 94.2606 119.415 94.2606 119.267 94.1704C116.94 93.2175 115.976 91.63 115.702 90.1327C114.803 91.2659 113.614 91.9006 112.396 91.9006C110.316 91.9006 108.288 90.0851 108.001 87.7268C107.882 86.7576 107.999 85.7162 108.317 84.6928C107.474 85.2143 106.566 85.503 105.752 85.503C105.48 85.503 105.257 85.503 104.985 85.4587C102.953 88.4058 100.829 90.4476 99.202 91.3561C98.5247 91.7186 97.8933 91.9006 97.4406 91.9006C97.0782 91.9006 96.6715 91.8104 96.4927 91.4923C96.0761 90.7903 95.7957 89.6719 95.6333 88.3599ZM102.995 78.697C102.995 79.968 103.627 81.2833 104.44 82.1459C104.758 81.2833 104.939 80.4223 104.939 79.5596C104.939 77.9262 104.306 77.1997 103.809 77.1997C103.22 77.1997 102.995 78.0164 102.995 78.697Z" fill="white"/>
</svg>
