<svg width="127" height="127" viewBox="0 0 127 127" fill="none" xmlns="http://www.w3.org/2000/svg">
<path d="M63.104 13.424C49.8814 13.424 37.2003 18.6766 27.8505 28.0264C18.5007 37.3762 13.248 50.0573 13.248 63.2799C13.248 76.5026 18.5007 89.1836 27.8505 98.5335C37.2003 107.883 49.8814 113.136 63.104 113.136C76.3267 113.136 89.0077 107.883 98.3576 98.5335C107.707 89.1836 112.96 76.5026 112.96 63.2799C112.96 50.0573 107.707 37.3762 98.3576 28.0264C89.0077 18.6766 76.3267 13.424 63.104 13.424V13.424Z" fill="#37474F"/>
<path d="M65.8958 66.3422L72.217 82.9547C73.6497 84.8991 75.3526 86.5995 77.3836 87.7514C83.7311 91.3541 91.8156 89.2759 95.4394 83.1095C95.4367 83.1095 66.62 66.8958 65.8958 66.3422Z" fill="#FF7043"/>
<path d="M65.8958 66.3421C66.7433 66.6806 95.4394 83.1069 95.4394 83.1069C99.0605 76.9378 96.8511 69.0186 90.501 65.4159C88.47 64.2639 86.1215 63.6657 83.6917 63.4164L65.8958 66.3421Z" fill="#F16461"/>
<path d="M88.011 69.9581C87.2474 69.5251 86.4234 69.1551 85.5733 68.8167C85.8462 71.4223 85.3502 74.1276 83.9149 76.5706C82.4796 79.0135 80.3463 80.7873 77.9138 81.8579C78.638 82.4116 79.3754 82.9285 80.139 83.3615C88.0923 87.8748 93.2616 86.8094 95.4369 83.1096C97.6122 79.4071 95.9643 74.4714 88.011 69.9581Z" fill="#FF5252"/>
<path d="M72.7183 76.7516C74.2638 78.6147 76.014 80.4042 77.9164 81.8553C80.3489 80.7847 82.4848 79.0109 83.9175 76.5679C85.3528 74.125 85.8488 71.4197 85.5759 68.814C83.3455 67.9219 80.892 67.3262 78.4806 66.9431C78.596 68.8875 78.1657 70.887 77.103 72.7002C76.035 74.5134 74.4895 75.8805 72.7183 76.7516Z" fill="#FF855F"/>
<path d="M77.9165 81.8578C76.0141 80.4068 74.2639 78.6146 72.7184 76.7542C71.6137 77.2973 70.4197 77.6253 69.1943 77.7618C70.0261 79.554 71.0259 81.3383 72.2198 82.9573C74.1852 83.0019 76.1296 82.6424 77.9165 81.8578Z" fill="#FF8A65"/>
<path d="M78.478 66.9457C80.8921 67.3314 83.3456 67.9245 85.5733 68.8166C85.3739 66.9011 84.7179 65.0696 83.6919 63.4164C81.6688 63.2091 79.5985 63.2537 77.6042 63.4401C78.0949 64.5526 78.4072 65.7334 78.478 66.9457Z" fill="#FF8A80"/>
<path d="M77.1002 72.7001C78.1656 70.8869 78.5959 68.8901 78.4778 66.943C71.9913 65.9092 65.8958 66.3421 65.8958 66.3421C65.8958 66.3421 68.5617 71.7476 72.7182 76.7516C74.4893 75.8804 76.0349 74.5133 77.1002 72.7001Z" fill="#FFCCBC"/>
<path d="M72.7184 76.7516C68.562 71.7476 65.896 66.3422 65.896 66.3422C65.7438 66.5993 65.6887 66.9116 65.7543 67.2291C66.1558 69.1761 67.1975 73.4716 69.1917 77.7618C70.4171 77.6227 71.6137 77.2974 72.7184 76.7516Z" fill="#FFAB91"/>
<path d="M77.6041 63.4401C72.8258 63.8861 68.5224 65.1483 66.6069 65.7807C66.2947 65.883 66.048 66.0877 65.8984 66.3448C65.8984 66.3448 71.994 65.9119 78.4805 66.9457C78.407 65.7334 78.0948 64.5526 77.6041 63.4401Z" fill="#FFCDD2"/>
<path d="M60.2754 66.3422C59.5511 66.8958 30.7344 83.1069 30.7344 83.1069C34.3581 89.2733 42.44 91.3515 48.7901 87.7488C50.8211 86.5968 52.5241 84.8965 53.9568 82.9521L60.2754 66.3422Z" fill="#C6CF47"/>
<path d="M60.2753 66.3421L42.4794 63.4164C40.0495 63.663 37.6984 64.2639 35.6701 65.4159C29.3226 69.0186 27.1106 76.9378 30.7317 83.1069C30.7343 83.1069 59.4278 66.6833 60.2753 66.3421Z" fill="#E1EB8A"/>
<path d="M46.0323 83.3614C46.7959 82.9284 47.5332 82.4088 48.2574 81.8578C45.825 80.7872 43.6891 79.0134 42.2564 76.5704C40.821 74.1275 40.3251 71.4222 40.598 68.8165C39.7504 69.155 38.9239 69.525 38.1603 69.958C30.2069 74.4712 28.5617 79.4044 30.7344 83.1068C32.9097 86.8093 38.0789 87.8746 46.0323 83.3614Z" fill="#DCE775"/>
<path d="M47.6931 66.9457C45.2791 67.3314 42.8256 67.9244 40.5978 68.8166C40.3249 71.4222 40.8209 74.1276 42.2562 76.5705C43.6915 79.0135 45.8249 80.7873 48.2573 81.8579C50.1597 80.4068 51.9099 78.6146 53.4554 76.7542C51.6842 75.8804 50.1387 74.5159 49.0734 72.7027C48.008 70.8869 47.5777 68.8901 47.6931 66.9457Z" fill="#FFF59D"/>
<path d="M40.5979 68.8165C42.8283 67.9244 45.2817 67.3287 47.6932 66.9456C47.7667 65.7333 48.0763 64.5525 48.567 63.44C46.5727 63.2537 44.4998 63.2117 42.4793 63.4163C41.4533 65.0695 40.7973 66.9036 40.5979 68.8165Z" fill="#E6EE9C"/>
<path d="M53.4555 76.7515C51.9099 78.6145 50.1597 80.4041 48.2573 81.8551C50.0443 82.6423 51.9887 83.0018 53.9567 82.9546C55.1506 81.3356 56.1477 79.5513 56.9821 77.7591C55.7541 77.6226 54.5602 77.2973 53.4555 76.7515Z" fill="#FFD740"/>
<path d="M49.0736 72.7001C50.1389 74.5133 51.6844 75.8778 53.4556 76.7516C57.6121 71.7476 60.278 66.3421 60.278 66.3421C60.278 66.3421 54.1825 65.9092 47.696 66.943C47.5779 68.8901 48.0082 70.8869 49.0736 72.7001Z" fill="#FFF9C4"/>
<path d="M47.6934 66.9456C54.1799 65.9117 60.2754 66.3447 60.2754 66.3447C60.1232 66.0876 59.8792 65.8829 59.567 65.7805C57.6488 65.1482 53.3455 63.8886 48.5698 63.4399C48.0765 64.5525 47.7668 65.7333 47.6934 66.9456Z" fill="#F0F4C3"/>
<path d="M56.9795 77.7591C58.9738 73.4689 60.0155 69.176 60.417 67.2264C60.4826 66.9089 60.4275 66.5966 60.2753 66.3395C60.2753 66.3395 57.6093 71.7449 53.4529 76.7489C54.5602 77.2973 55.7541 77.6227 56.9795 77.7591Z" fill="#FFE082"/>
<path d="M108.683 75.4921C107.604 79.5252 106.019 83.3457 103.975 86.8776L108.517 89.499C110.79 85.5735 112.548 81.3331 113.747 76.8487L108.683 75.4921Z" fill="#F44336"/>
<path d="M29.7057 96.6782L25.9954 100.389C29.2255 103.619 32.9044 106.39 36.885 108.694L39.5063 104.151C35.9246 102.078 32.6131 99.5856 29.7057 96.6782Z" fill="#FFD740"/>
<path d="M15.872 63.2799H10.624C10.624 67.9821 11.301 72.5138 12.4608 76.8512L17.5251 75.4946C16.4808 71.5901 15.872 67.5098 15.872 63.2799Z" fill="#AED581"/>
<path d="M22.2326 86.8776L17.6904 89.4989C19.9943 93.4796 22.7652 97.1558 25.9954 100.389L29.7057 96.6782C26.7983 93.7708 24.3055 90.4593 22.2326 86.8776Z" fill="#FFF176"/>
<path d="M17.5253 75.4921L12.4609 76.8513C13.6601 81.3331 15.4208 85.5761 17.6906 89.5016L22.2327 86.8802C20.1886 83.3457 18.6037 79.5278 17.5253 75.4921Z" fill="#DCE775"/>
<path d="M39.5064 104.151L36.885 108.694C40.8105 110.963 45.0509 112.724 49.5353 113.923L50.8919 108.859C46.8562 107.78 43.0383 106.195 39.5064 104.151Z" fill="#FFCA28"/>
<path d="M86.7017 104.151L89.323 108.694C93.3036 106.39 96.9825 103.619 100.213 100.389L96.5023 96.6782C93.5949 99.5856 90.2834 102.078 86.7017 104.151Z" fill="#FF7043"/>
<path d="M75.3162 108.859L76.6728 113.923C81.1546 112.724 85.3976 110.963 89.3231 108.694L86.7017 104.151C83.1698 106.195 79.3519 107.78 75.3162 108.859Z" fill="#FB8C00"/>
<path d="M96.5022 96.6782L100.213 100.389C103.443 97.1584 106.214 93.4796 108.517 89.4989L103.975 86.8776C101.902 90.4593 99.4096 93.7708 96.5022 96.6782Z" fill="#FF5252"/>
<path d="M50.892 108.859L49.5354 113.923C53.8702 115.083 58.4019 115.76 63.1041 115.76V110.512C58.8742 110.512 54.7939 109.903 50.892 108.859Z" fill="#FFB74D"/>
<path d="M63.104 110.512V115.76C67.8062 115.76 72.3379 115.083 76.6753 113.923L75.3187 108.859C71.4142 109.903 67.3339 110.512 63.104 110.512Z" fill="#FFA726"/>
<path d="M50.8919 17.701L49.5326 12.6367C45.0508 13.8359 40.8078 15.5966 36.8823 17.8664L39.5037 22.4085C43.0382 20.3644 46.8561 18.7795 50.8919 17.701Z" fill="#64B5F6"/>
<path d="M108.683 51.0678L113.747 49.7112C112.548 45.2294 110.787 40.9864 108.517 37.0609L103.975 39.6823C106.019 43.2142 107.604 47.0321 108.683 51.0678Z" fill="#9575CD"/>
<path d="M103.975 39.6822L108.517 37.0609C106.214 33.0803 103.443 29.4014 100.213 26.1713L96.5022 29.8816C99.4096 32.789 101.902 36.1005 103.975 39.6822Z" fill="#7986CB"/>
<path d="M96.5023 29.8816L100.213 26.1713C96.9825 22.9411 93.3036 20.1702 89.323 17.8663L86.7017 22.4085C90.2834 24.4814 93.5949 26.9742 96.5023 29.8816Z" fill="#8C9EFF"/>
<path d="M86.7018 22.4085L89.3231 17.8664C85.4003 15.594 81.1572 13.8333 76.6755 12.6367L75.3188 17.701C79.3519 18.7795 83.1699 20.3644 86.7018 22.4085Z" fill="#82B1FF"/>
<path d="M110.336 63.2799H115.584C115.584 58.5777 114.907 54.0461 113.747 49.7086L108.683 51.0652C109.727 54.9697 110.336 59.0501 110.336 63.2799Z" fill="#F06292"/>
<path d="M17.5251 51.0679L12.4608 49.7086C11.301 54.0461 10.624 58.5777 10.624 63.2799H15.872C15.872 59.0501 16.4808 54.9697 17.5251 51.0679Z" fill="#9CCC65"/>
<path d="M108.683 75.492L113.747 76.8486C114.907 72.5138 115.584 67.9821 115.584 63.2799H110.336C110.336 67.5098 109.727 71.5901 108.683 75.492Z" fill="#EF5350"/>
<path d="M75.3161 17.701L76.6727 12.6367C72.3379 11.4769 67.8062 10.7999 63.104 10.7999V16.0479C67.3339 16.0479 71.4142 16.6567 75.3161 17.701Z" fill="#64B5F6"/>
<path d="M29.7057 29.8816L25.9954 26.1713C22.7652 29.4014 19.9943 33.0803 17.6904 37.0609L22.2326 39.6822C24.3055 36.1005 26.7983 32.789 29.7057 29.8816Z" fill="#68C1B8"/>
<path d="M22.2327 39.6823L17.6906 37.0609C15.4182 40.9838 13.6575 45.2268 12.4609 49.7086L17.5253 51.0652C18.6037 47.0321 20.1886 43.2142 22.2327 39.6823Z" fill="#81C784"/>
<path d="M39.5063 22.4085L36.885 17.8663C32.9044 20.1702 29.2255 22.9411 25.9954 26.1713L29.7057 29.8816C32.6131 26.9742 35.9246 24.4814 39.5063 22.4085Z" fill="#4DB6AC"/>
<path d="M63.104 16.0479V10.7999C58.4018 10.7999 53.8702 11.4769 49.5327 12.6367L50.8893 17.701C54.7938 16.6567 58.8742 16.0479 63.104 16.0479Z" fill="#4BA9F5"/>
<path d="M63.1066 29.168L63.104 63.28C63.4058 63.28 63.7075 63.1698 63.9542 62.952C66.8642 60.3831 76.224 51.4116 76.224 42.4428C76.224 35.1113 70.3515 29.1706 63.1066 29.168Z" fill="#7986CB"/>
<path d="M63.1039 29.168C63.1013 29.168 63.1013 29.168 63.1039 29.168C55.859 29.168 49.9839 35.1113 49.9839 42.4428C49.9839 51.4116 59.3437 60.3831 62.2537 62.952C62.5004 63.1698 62.8021 63.28 63.1039 63.28V29.168Z" fill="#26A69A"/>
<path d="M63.1039 29.168C58.7533 29.168 55.2319 33.104 55.2319 42.288C55.2319 51.7081 63.1039 63.28 63.1039 63.28C63.1039 63.28 70.9759 51.7081 70.9759 42.288C70.9759 33.104 67.4519 29.168 63.1039 29.168Z" fill="#82B1FF"/>
<path d="M63.104 29.168C64.5288 29.168 65.5732 29.4094 65.7201 29.4435C70.2492 30.4747 73.6 34.0801 73.6 38.352C73.6 40.7398 72.5242 42.9177 70.8186 44.5446C70.8448 44.3609 63.8413 29.2467 63.104 29.168Z" fill="#4DB6AC"/>
<path d="M67.8795 54.5159C65.6753 59.5015 63.1038 63.28 63.1038 63.28C63.1038 63.28 60.5323 59.5015 58.3281 54.5159C59.8238 55.0931 61.4244 55.408 63.1038 55.408C64.7832 55.408 66.3838 55.0931 67.8795 54.5159Z" fill="#90CAF9"/>
<path d="M55.3893 44.5446C53.6575 42.944 52.6079 40.7398 52.6079 38.352C52.6079 33.9174 56.2028 30.2176 60.9785 29.3516C61.3983 29.2729 62.6605 29.168 63.1039 29.168C59.1417 29.6403 55.2844 43.7836 55.3893 44.5446Z" fill="#8DD0CA"/>
<path d="M70.9759 42.288C70.9759 42.6553 70.9759 43.0489 70.9235 43.4163C70.9235 43.7836 70.871 44.1773 70.8185 44.5446C68.903 46.3814 66.1478 47.536 63.1039 47.536C60.0601 47.536 57.3049 46.3814 55.3894 44.5446C55.2844 43.7837 55.2319 43.0227 55.2319 42.288C55.2319 33.6812 58.3283 29.6928 62.2905 29.2204C62.5529 29.168 62.8415 29.168 63.1039 29.168C63.3663 29.168 63.655 29.168 63.9174 29.2204C64.6521 29.2992 65.3868 29.5091 66.0428 29.8764C66.2527 29.9814 66.4627 30.1126 66.6726 30.2438C66.8825 30.375 67.0924 30.5324 67.3023 30.7424C67.486 30.8998 67.6697 31.0572 67.8271 31.2409C68.4307 31.8707 68.9817 32.6579 69.4015 33.6288C69.5327 33.9174 69.6639 34.206 69.7689 34.4947C69.9001 34.8096 70.0051 35.1244 70.11 35.4656C70.215 35.7542 70.2937 36.0691 70.3462 36.384C70.4511 36.8038 70.5561 37.2236 70.6086 37.6697C70.7135 38.1683 70.7923 38.7193 70.8447 39.2704C70.9235 40.1888 70.9759 41.2121 70.9759 42.288Z" fill="#80CBC4"/>
<path d="M76.1715 43.4688C75.5155 52.1017 66.7514 60.4985 63.9437 62.9651C63.7075 63.175 63.4189 63.2799 63.104 63.2799C63.104 63.2799 65.6755 59.5014 67.8797 54.5158C72.393 52.7315 75.6992 48.5068 76.1715 43.4688Z" fill="#9FA8DA"/>
<path d="M63.1039 63.2799C62.789 63.2799 62.5004 63.175 62.2642 62.9651C59.4565 60.4985 50.6924 52.1017 50.0364 43.4688C50.5087 48.5068 53.8149 52.7315 58.3282 54.5158C60.5324 59.5014 63.1039 63.2799 63.1039 63.2799Z" fill="#81C784"/>
</svg>
