<svg width="127" height="127" viewBox="0 0 127 127" fill="none" xmlns="http://www.w3.org/2000/svg">
<path d="M15.9519 26.544C15.9519 20.7476 20.6515 16.048 26.4479 16.048H99.9199C105.716 16.048 110.416 20.7476 110.416 26.544V100.016C110.416 105.812 105.716 110.512 99.9199 110.512H26.4479C20.6515 110.512 15.9519 105.812 15.9519 100.016V26.544Z" fill="#FF5722"/>
<path d="M23.824 23.9199V102.64H102.544V23.9199H23.824ZM62.3732 81.6479L60.3737 74.0121H50.0981L48.1012 81.6479H40.1321L51.7906 44.3373H58.6838L70.421 81.6479H62.3732ZM81.1584 81.6479H73.882V53.9227H81.1584V81.6479ZM80.3764 49.5144C79.6653 50.2491 78.7076 50.6165 77.4926 50.6165C76.2777 50.6165 75.32 50.2491 74.6089 49.5144C73.8978 48.7797 73.5462 47.8561 73.5462 46.7461C73.5462 45.6178 73.9056 44.6968 74.622 43.9778C75.3383 43.2588 76.2987 42.9019 77.4926 42.9019C78.6866 42.9019 79.6443 43.2614 80.3633 43.9778C81.0823 44.6941 81.4391 45.6178 81.4391 46.7461C81.4391 47.8561 81.0849 48.7797 80.3764 49.5144Z" fill="#1C0802"/>
<path d="M51.7407 67.7329H58.7101L55.2254 54.4344L51.7407 67.7329Z" fill="#1C0802"/>
</svg>
