<svg width="127" height="127" viewBox="0 0 127 127" fill="none" xmlns="http://www.w3.org/2000/svg">
<path d="M68.5121 44.7279H47.5201C37.3757 44.7279 29.1521 36.5043 29.1521 26.3599C29.1521 16.2156 37.3757 7.99194 47.5201 7.99194H68.5121V44.7279Z" fill="#E64A19"/>
<path d="M65.8881 81.464H47.5201C37.3757 81.464 29.1521 73.2404 29.1521 63.096C29.1521 52.9516 37.3757 44.728 47.5201 44.728H65.8881V81.464Z" fill="#7C4DFF"/>
<path d="M47.5201 118.2C37.3757 118.2 29.1521 109.976 29.1521 99.832C29.1521 89.6876 37.3757 81.464 47.5201 81.464H65.8881V99.832C65.8881 109.976 57.6645 118.2 47.5201 118.2Z" fill="#66BB6A"/>
<path d="M84.2562 44.7279H65.8882V7.99194H84.2562C94.4006 7.99194 102.624 16.2156 102.624 26.3599C102.624 36.5043 94.4006 44.7279 84.2562 44.7279Z" fill="#FF7043"/>
<path d="M84.2562 81.464C94.4006 81.464 102.624 73.2404 102.624 63.096C102.624 52.9517 94.4006 44.728 84.2562 44.728C74.1118 44.728 65.8882 52.9517 65.8882 63.096C65.8882 73.2404 74.1118 81.464 84.2562 81.464Z" fill="#29B6F6"/>
</svg>
